/* XPM */
static char *_fd5f3621b214b9aec19081324d4beba[] = {
/* columns rows colors chars-per-pixel */
"64 64 7 1 ",
"  c #2E502D",
". c #2F562E",
"X c #484F47",
"o c #616A60",
"O c #488545",
"+ c #5BB357",
"@ c #88C386",
/* pixels */
"XXXXXXXXXXXXXXXXXXXXXXXXXXXXXXXXXXXXXXXXXXXXXXXXXXXXXXXXXXXXXXXX",
"XXXXXXXXXXXXXXXXXXXXXXXXXXXXXXXXXXXXXXXXXXXXXXXXXXXXXXXXXXXXXXXX",
"XXXXXXXXXXXXXXXXXXXXXXXXXXXXXXXXXXXXXXXXXXXXXXXXXXXXXXXXXXXXXXXX",
"XXX@@@@@@@O+++++++++++++++++++++++++++++++++++++++++++++     XXX",
"XXX@@@@@++++++++++++++++++++++++++++++++++++++++++++++++++   XXX",
"XXX@@@@@+++O++++++++++++++++++++++++++++++++++++............ XXX",
"XXX@@@@@++@OO++++++++++++++++++++++++++++++++.........oo.....XXX",
"XXX@@O@@+@@O@++++++++++++++o++++++++++  ++........oo...ooo...XXX",
"XXX@@@@@@++@+++++++++++++++oo+++++++++++..........oo......o..XXX",
"XXX@@@@@@+++++++++++++++++++oo+++++++++...........oo.......o.XXX",
"XXX@@@@@@++++++++++++++++++++oo++++++......................o.XXX",
"XXX@@@@@@@++++++++++++++++++++++++++..............oo........oXXX",
"XXX@@@@@@@+++++++++++++++++++++++++..............o.ooooo..oooXXX",
"XXX@@@@@@++++++++++++++++++++++oo+...............ooooooooooooXXX",
"XXX@@@@+++++++++++++++++++++++++oo...............ooooooooooooXXX",
"XXX@@@+++++++++++++++++++++++++++o................oooooooooooXXX",
"XXX@@+++++++++++++++++++++++++++.................ooooooooooooXXX",
"XXX@@+++++++++++++++++o++++++++..................ooooooooooooXXX",
"XXX@@+++++++++++++++++++++++++...................ooooooooooooXXX",
"XXX@@+++++++++++++++++++++++++....................oooooooo.ooXXX",
"XXX@@+++++++++++++++++++++++ ..................oooooooooo...oXXX",
"XXX@@+++++++++++++++++++ ++++..................ooooo....oo...XXX",
"XXX@@++++++++++++++++++  +++o...................oooooo..o....XXX",
"XXX@+++++++++++++++++++++ oo......................ooooooo....XXX",
"XXX@++++++++++++++++++++++++.........................ooooo..oXXX",
"XXX++++++++++++++++++++++++............................ooo..oXXX",
"XXX@+++++++++++++oo+++++++oo...................ooooooooooooooXXX",
"XXX@@+++++++++++++++++++++oo...................ooooooooooooo.XXX",
"XXX@@++++++o++++++++++++++.o....................ooooooo.ooo..XXX",
"XXX@++++++++++++++++++++++.o...ooo.............ooooooo...oo..XXX",
"XXX++++++++++++++++++o++++.....ooo.o..........ooooooo....ooooXXX",
"XXX ++++++++++++++++++++++..........o.........oooooo.....ooooXXX",
"XXX ++++++++++++++++++++++...........oo.....ooooooooo.....oooXXX",
"XXX  +++++++++++++++++++++...........ooo....ooooooooo......ooXXX",
"XXX  +++++++++++++++++++++..............o..oooooooooo.....oooXXX",
"XXX   ++++ +++++++++++++++..............ooooooooooo.ooo..ooooXXX",
"XXX    +++ +++++++++++++++............oo.oooooooooo.oooo..oooXXX",
"XXX    +++++++++++++++++++............oo....ooooo...oooo...ooXXX",
"XXX      ++++++++++++++++++...........ooo..oooo.o...ooooo..ooXXX",
"XXX      ++++++++++++++++++...........oooo.oooo.....oooo.o..oXXX",
"XXX      ++++++++++++++++++...........ooooooooo....o........oXXX",
"XXX       ++++++++++++++++++.........ooooooo..o...oo........oXXX",
"XXX        +++++++++++++++++..........oooo..o...oooo.......ooXXX",
"XXX        +++++++++++++++++..........ooo....oo..ooo.......ooXXX",
"XXX         ++++++++++++++++.o................oooo..........oXXX",
"XXX          +++++++++++++++oo................ooo....oo......XXX",
"XXX          +++++++++++++++oo.................ooo...........XXX",
"XXX          ++++++++++++++++o...................o..o........XXX",
"XXX            ++++++++++++++++.............o.......o........XXX",
"XXX            ++++++++++++++++++++..........................XXX",
"XXX    @        +++++++++++++++++++.........................oXXX",
"XXX@   @          ++++++++++ ++++...................oo......oXXX",
"XXX@               ++++++++   +++  ........................ooXXX",
"XXX@@@               ++++++        ........................ooXXX",
"XXX@@@                +++++        +.......................o.XXX",
"XXX@@@            o   + +++          ......... ............ooXXX",
"XXX@@@@               +++++             ...o...............o.XXX",
"XXX@@@@@               ++             o  ..................ooXXX",
"XXX@@@@@                     ++        o   ...... oooooooooooXXX",
"XXX@@@@@@                                   .....ooooooooooooXXX",
"XXX@@@@@@@                                       ooooooooooooXXX",
"XXXXXXXXXXXXXXXXXXXXXXXXXXXXXXXXXXXXXXXXXXXXXXXXXXXXXXXXXXXXXXXX",
"XXXXXXXXXXXXXXXXXXXXXXXXXXXXXXXXXXXXXXXXXXXXXXXXXXXXXXXXXXXXXXXX",
"XXXXXXXXXXXXXXXXXXXXXXXXXXXXXXXXXXXXXXXXXXXXXXXXXXXXXXXXXXXXXXXX"
};
