/* XPM */
static char *_2915ca5599e49a9cbee8f09269378b8[] = {
/* columns rows colors chars-per-pixel */
"64 64 19 1 ",
"  c #FF000000",
". c #080E17",
"X c #2C110E",
"o c #3A1510",
"O c #352C1E",
"+ c #372D2E",
"@ c #3B3122",
"# c #3A3737",
"$ c #46170D",
"% c #561908",
"& c #7A230B",
"* c #6F2515",
"= c #423626",
"- c #403D3D",
"; c #534241",
": c #5C4948",
"> c #B3B0B0",
", c #C6C4C4",
"< c #DDD7D7",
/* pixels */
"                             .......                            ",
"                           ...;;;;;...                          ",
"                         ..##.;;;::.-#..                        ",
"                       ..-##-.;;:::.-##-..   ...........        ",
"                     ..--##--.;;:::.--##-... .&&&&&&&&&.        ",
"                   .##.-##---.;::::.---##.::............        ",
"                 .###-.-#----.;::::.----#.:::;.&&.&&&&.         ",
"               ..##---.----...;::::...---.::;;.&&.&&&&.         ",
"             ..###----.--..##.;::::.--..-.::;;.........         ",
"           ..-####----...--#-.;::::.-##-..::;:.%%$$.&&.         ",
"         ..:.-###----..--###-.;::::.--###-..::.%%%$.&&..        ",
"       ..;;:.--#---..--####--.;;:::.---##--.......$....-..      ",
"     ..;;;;:.----..;.-##--....;;;::....-###.--.&&.$$$$.-....    ",
"   ..::;;:::.--..;;:.----................--.--.&&.%$$$.-.##-..  ",
"   .::;;::::...;;;;:.--....ooooo.ooooo......--......%$.-.-##-.  ",
"   .::;::::..::;;;::......oooooo.oooooo.....-++.&&&.%$.-.--#-.  ",
"   .:::::..:::;;:::....oo.oooooo.oooooo.oo.....+..&.%%...----.  ",
"   .:::..-.::;;::....oooo.oooooo.oooooo.oooo....++..%%.;..---.  ",
"   .:..-#-.::::...................................++...;;;..-.  ",
"   ..--##-.::....ooooooooooooooooooooooooooooXXX....+++:;;;;..  ",
"   .-###--.....ooooooooooooooo%%%%%oooooooooXXXXXX.....::;;;:.  ",
"   .-#--.....oooooooooooooooo%%%%%%%ooooooooXXXXXXXX....:::;;.  ",
"   .---....ooooooooooooooooo%%%%%%%%%ooooooXXXXXXXXXoo.....::.  ",
"   .-.........................................................  ",
"   ....oooooooooooooooooooo.**&&.**&&.oooooXXXXXXXXooooooo....  ",
"   ...oooooo%..........%%%o.*&&&.*&&&.o%%%..........ooooooo...  ",
"     .oooo%%.OOOOOOOOOO.%%%...........%%%.OOOOOOOOOO.oooooo.    ",
"     .oooo%%.O........O.%%%%%%.&&*&.%%%%%.O........O.oooooo.    ",
"     .oo%%%%.O.>>>>>>.O.%%%%%%.&&&&.%%%%%.O.>>>>>>.O.oooooo.    ",
"     .oo%%%%.O.>>>><<.O.%%%.........%%%%%.O.>>>>><.O.oooooo.    ",
"     .....%%.O.>><<<<.O.%%%.**&&.%%%%%%%%.O.>>><<<.O.%%oooo.    ",
"     .&&&.%%.O.><<<<<.O.%%%.*&&&.%%%%%%%%.O.><<<<<.O.%%%ooo.    ",
"     .&&&.%%.@.<<<<<<.@.%%%......%%%%%%%%.@.<<<<<<.@.%%%%%o.    ",
"     ........@.<<<<>>.@.%%%%%%%%%%%%%%%%%.@.<<<<,,.@.%%%%%%.    ",
"     .o.**&&.@........@.%%%%%%%%%%%%%%%%%.@........@.%%%%%%.    ",
"     .%.**&&.@@@@@@@@@@.%%%%%......%%%%%%.@@@@@@@@@@.%%%%%%.    ",
"     .%.....%..........%%%%%%.&&&&.%%%%%%%..........%%%.....    ",
"     .%%%%%%%%%%%%%%%%%%%%%%%.&&&&.%%%%%%%%%%%%%%%%%%%%.**&.    ",
"     .%%%%%%%%%......%%%%%%%%........%%%%%%%%%%%%%%%%%%.**&.    ",
"     .%%%%%%%%%.**&&.%%%%%%%%%%.**&&.%%%%%%%%%%%%%%.........    ",
"     .%%%%%%%%%.*&&&.%%%%%%%%%%.*&&&.%%%%......%%%%.**&&&.%.    ",
"     .%%%%%%%%%......%%%%%%%%%%......%%%%.&&&&.%%%%.*&&&&.%.    ",
"     .%%%%%%%%%%%%%%%%%%%%%%%%%%%%%%%%%%%.&&&&.%%%%.......%.    ",
"     .%%%%%%%%%%%%%%%%%%%%%%.........%%%%......%%%%%%%%%%%%.    ",
"     .%%%%%%%%%%%%%%%%%%%%%.OOOOOOOOO.%%%%%%%%%%%%%%%%%%%%%.    ",
"     .%%%%%%%..........%%%.OO.......OO.%%%..........%%%%%%%.    ",
"     .%%%%%%.OOOOOOOOOO.%%.O.=======.O.%%.OOOOOOOOOO.%%%%%%.    ",
"     .%%%%%%.O........O.%%.O.=@@===..O.%%.O........O.%%%%%%.    ",
"     ......%.O.>>>>>>.O.%%.O.==@=....@.%%.O.>>>>>>.O.%%%%%%.    ",
"     .&&&&.%.O.>>>><<.O.%%.O.==@@==..@.%%.O.>>>>><.O.%%%%%%.    ",
"     .&&&&.%.O.>><<<<.O.%%.O.===@===.@.%%.O.>>><<<.O.%%%%...    ",
"     ........O.><<<<<.O.%%.O.=======.@.%%.@.>><<<<.O.%%%%.&.    ",
"     .%%.**&.O.<<<<<<.@.%%.O.=..====.@.%%.@.><<<<<.@.%%%%.&.    ",
"     .%%.*&&.@.<<<<,,.@.%%.@.=..====.@.%%.@.<<<<,,.@.%%.....    ",
"     .%%.....@........@.%%.@.=======.@.%%.@........@.%%.*&&.    ",
"     .%%%%%%.@@@@@@@@@@.%%.@.==@@===.@.%%.@@@@@@@@@@.%%.*&&.    ",
"     .%%%%%%%..........%%%.@.=@@===..@.%%%..........%%%.....    ",
"     .%%%%%%%..........%%%.@.=@==....@.%%%..........%%%%%%%.    ",
"     .%%%%%%%%%%%%%%%%%%%%.@.======..@.%%%%%%%%%%%%%%%%%%%%.    ",
"     .%%%%%%%%%%%%%%%%%%%%.@.=======.@.%%%%%%%%%%%%%%%%%%%%.    ",
"     ......................@.........@......................    ",
"                          ...       ...                         ",
"                                                                ",
"                                                                "
};
