/* XPM */
static char *result[] = {
/* columns rows colors chars-per-pixel */
"64 64 92 1 ",
"  c #2D1A1A",
". c #341E1E",
"X c #262524",
"o c #3A2121",
"O c #302F2D",
"+ c #343331",
"@ c #3E3D3B",
"# c #441D1D",
"$ c #481F1F",
"% c #45201D",
"& c #48221F",
"* c #4B2120",
"= c #542323",
"- c #5C2424",
"; c #5F2925",
": c #5E2828",
"> c #403F3C",
", c #622726",
"< c #682723",
"1 c #622A26",
"2 c #6D2926",
"3 c #642928",
"4 c #6C2B2B",
"5 c #742C25",
"6 c #7B2C24",
"7 c #732E2C",
"8 c #782F2A",
"9 c #6E312C",
"0 c #74322D",
"q c #7C322C",
"w c #7E392F",
"e c #763230",
"r c #793332",
"t c #41403D",
"y c #474643",
"u c #504E4C",
"i c #53514E",
"p c #6C6966",
"a c #706E6B",
"s c #74736F",
"d c #802F27",
"f c #83342C",
"g c #8A362C",
"h c #85382F",
"j c #8E392F",
"k c #9A3625",
"l c #9D3927",
"z c #953C2D",
"x c #993E2E",
"c c #833631",
"v c #843B31",
"b c #8A3A32",
"n c #913C31",
"m c #9C3F30",
"M c #A23E2A",
"N c #99402F",
"B c #9C4332",
"V c #A5432E",
"C c #A8452F",
"Z c #A64A2E",
"A c #A54631",
"S c #A94731",
"D c #A74832",
"F c #AB4932",
"G c #AB5132",
"H c #C3563F",
"J c #C35E3F",
"K c #846B66",
"L c #856E69",
"P c #87726C",
"I c #89746E",
"U c #8B7771",
"Y c #8E7C76",
"T c #8F7F79",
"R c #91827C",
"E c #938680",
"W c #958B85",
"Q c #978E88",
"! c #97908A",
"~ c #99948D",
"^ c #9B9790",
"/ c #9B9891",
"( c #B49286",
") c #B89E91",
"_ c #B9A495",
"` c #BAA799",
"' c #BBAC9D",
"] c #BDB09F",
"[ c #BEB3A4",
"{ c #BEB7A9",
"} c #BFB9AA",
"| c #C0BBAD",
/* pixels */
"/1:rrrrrrrrrrcrccrcrrrrrrrrrrr||||rrrrrrrrrrrrrrrrrrrrrrrcrbbb|/",
"1:3FFFFFFFmnnnnrrrrrrccrrnnnrnm||rHHHHrrrrrrrrrrrrrrrFrcHbbbrre/",
":FFFFFFFFnFFnDDDDFFFFFFFnnnDnnn|rHFFFFFFHFFFFFFFFFFrFFDDBBbrrr:|",
":FFFFFFFFFFFFnFFFFDFFFFFFnFFFnn|rHFFHFFFFFFDHAAAFAFFFFFbAAbbrr:|",
":FSSSFnSSFFFnFnnnnFFFFDDFDDDnnn|rFFFFFFFFFFFFFFFAAcFFFDFFFcbbrr|",
":FSSSnbnFSnFnnnnDnnDMDDDDDDDnrn|rFFFFbSDFFFFFMFmFFbDFcFDAFDFbrr|",
":AbjnnbzjnnnnnnnnnnnnFMDAmrnnrn|rFFbFbbSFcbFnFbccAcbbbcbcccbcAc|",
"-AbjVjjjjjjjjjrbnbnnnnnjnnrrrrr|rFAAFcFbcbFbbbbbbbbbcbbcbcccccr{",
"-bgjjg7jjejjbe7eebjjMnjrbneeeee}rAcFccMccbcbbbccrrrcccccbccccccW",
"=ggggb77777bbjb7bejber7bee7eeee}rmccccbbbcccMccr77c7dccccrMdddcE",
"=7ggggbg7777gggge4e47e7e77e-7ee}cmcrc7cccccccfe474444444err48r*E",
"=4f74g4747477g77774e7777777=-7={7cc774d447df8r444444=4444,7,7,UW",
"=474cc477444g474===4474477474=-{4rd4r4444448844,4,*$:$*:,,,,,<,E",
"*44g444444===*===*=*=44447477-:}777e4744,,,,,,,$,$$$:$$-----,,$Q",
")T449===:======E@@>>:::oo:-===EaT777444,,,,4,4,4=..===.=4444,=-Y",
"//////}}}}}||}}////////}}|//^^sss/||||!^///||||||||||||}}}||++^^",
"rrrrr,+y/rrrrrrrrrcrrrrrrrrrrFFFrrrbrrr/rrFFrrrrASFFrrrrrrrrFFrr",
"FFFrrrr+/rrHHHFFFFFFSSSSFFFFFFFFFFFbFbr/rFFFFFrFSSFFFFrFFFFHFFFF",
"FFFFFrrr/rFFFHFFFFFFFFFFFHFFFFFFFFFHFbr/rFFHFFrFFFFFFFFFFFFHHFFF",
"FFFFFMrr/rFHHFFFHHFFjnFFFFFFFFFFFFFFHFbsrFFHHFFFFnFFFFFFFFFFFFFF",
"MnnnFFrr|8SSSbSSFSFbbFFFFbbbbbbbbnFFFbrsrFFFFFHFFFSnnFHMFFMHFFFF",
"nnjnnFMr|CSSbbSSSbbbbbcbbjbbbbbbbbbbbbbsrFFFFFFFFFSSFnMFMFFFFFMF",
"nnjjnnFr|CCSSCSSSbhbbbbbbhrbbbbbbbbbjjjsrFFFMFMmnnnnnnAmFDmMMmFn",
"jjjjjnMr|CVShVhShhhhchcchhccbccrccDDSMcarFMnnnmnnnnjnnmmnnnFMnnn",
"gggjggg7|4MMfMcVfff77f7c77777777cccMbc7p7mjjjgggjgggggggbcgggg4g",
"g4ggfgg7|2fMMcfMfqq7ffq7q777d477ccdMdc4pngggggggggMgggggcggggg4g",
"dfdfff34|4d888888844284442444442888888,W7ffdd4dddgdgd2ddgd4gfd22",
"<ddddd,,E8,,,<<,<3<5,3<5<,,,,<,,,,88,,,W7,,,,4,,,,,d,,ddddd,,,,,",
",666d6-,O5,,-###,,--,,,-,,,252-----4-,-E4-------,----------dd6--",
"-66656--OX-##-#---#--=-<=======-==-==##T3==-==-#-##==-=-==6=6===",
",dff,,,(pXX$  -,##----,-,,,,,,2444444=`^!777e,,-4$#-#--,---==--=",
"|~^^^^aass^^~~^|{{{{[{{[||{||||||||}}|}^//||||a|||||||||||||||||",
"rrrrrrrrrrrrrrrrrrrrrBr}|t:rrrwwrrwrwwrriwwwwrwrrwrrwys//rrrrrrr",
"FFFFHHHHHFFFFFFFFrrBBBrr|:wwrwwiGGrrrrGwGGJJGGGGGGGww3y/rrFFrFFF",
"FFFFFFFFFFFFFFFFFFFrBBrr|NwGGGGGGGGGrGGGJGGJJGGGGGGGGG>/rDrDFFHH",
"FFFFFFFFFFFFFFFFFrFrrBBr|eGwGGGGGGGGGGGGGGGJGJGGwwwwGG3/rrGDFFHH",
"FFFFFFFFFFFFBBBFFrFFDFrr|rGGGGGJGGGJGGGGGGJGGJGGJGvKNZw/rFFFFHFF",
"FDFFFFFBFFBBBBBFFFFFGGBr|rGwGGwvGGGGGGGGGGGGGGGGGwvvw9w/rFSSHFFB",
"BFFBFBBBBBBBABBFFFFFGBB9urGGwwwJGGGGGGwwJwwBNwGGGwwvwwr/rSSSHSFF",
"BBBFBFBBBbBBBBBBBBBBBGB++NGwGGGvvvvGGvvvwwwwwwwwwGGww99/eSSVSSmn",
"cBmBBBBcBBccbBBBBBBBBBBusNGGwwvvvvJwGwwNwwwwwNwwwwwww00^eVSMccrx",
"ccmmmBcccBcBBBcBBBBBBBmrswwGGwwwvwwwwNwwwwwww9wwwGwwww0{e7MxqM8V",
"rcccBccccccrccBcbcBBBBmrswNwNwwwwwwwwwwwww9w9wwwwwwZww0{77Mr8q88",
"rcrcrcrcerrrrccmcBrcnmnea90wwwwwwwwwwwZw99w99999ww0w090[4MM88488",
"8888rrMc77777rfrrm8crcn7p99wwwCrwwww00Zw9ww990909q0009=])M464477",
"8278e7884==444448848e74=R94433449u9191119:11&11511111*&Q,k,,,322",
"<<<<222,***,,,,4,43,,,*,I&*1114,11;;;;;;:;;;&&;;;;;;$ UW,-,-#,22",
"==<===-uuii   #####$$$#LLP%%%%##&%%%%%%%OKKKLK%;;=;;  IWP--##-=-",
"||''[QWQWRYYTEWWQ''[|`'W'''[{||||||||||||^!!WWWWp]a}|~~~~~~|!|||",
"8rrrrr,:rFFFFFFr|::rrrrrrrrrrrrrrrrc7rrrrrrrrrrsss+;rrrrrrrrrr88",
"BBmmBBrDFFFFFFFr|3:rMcFFFFMFFFFrMFFFMFFFScrcbcrss+;wrrrrSFFFSSem",
"BBBBFBFAFFFFHFFr|:rFFFFFFFFFFFFFFFFFFFFFFSFFcccssr0GFFFSFSFBSSSS",
"FFFFBFFFFFBDFFFr|:rFFFcHFFbFFFFFFFFFFFcFbFFFFFbs|rSFFFHSBSSSSSVV",
"FFFBFBFFFBFBFFFr/rrrFFcFFbFFFFFFFFFFFccccFFFFFc^/rSSFSSNSSxmmSxV",
"FFFBFBBBFBFBBBF^/rrrcFcFbcccccccccbbcFcFcFFFSFee^rZSSSCCxxxzxxxV",
"FFFABBcccBmABmFr/rrFbcbMFcFccccbcbcccFbcccFcSSSe!0CCCNCxzxzzzVMz",
"ScmBccBBcBBBBNNearrcccccccccccccccccccMMScfcfMSeQ7SMMMzzz77zMzMM",
"ccrcmcfcccmmmmNeaecfcrcccececffcccfffrcccr8rrMM4E4888j85j8kj8lMM",
"qqrfqqqrnxx8mmm9p7rfrdf7477e4mrrrr4r78rr88888MM=T485z87757577527",
"q4q8q8q8nxzzzn44E-8r8rr4847444444474774775748l3*U,2722,225<2,222",
"4488M88888gz3444T=47e44444,433343,,,,252,222-,-,L-$--,<2k<2-----",
"*4<33235kg<<g<33Y**,,,,,,,,,$,,,,-,-,-,2<----##iK#---=<---=--##$",
"*$$$&&&&  .$**#UUI$$,-,,::,#:-----# #$-==-=####uu##$$$$$$$$#####",
"[[[``_______)_)_````'`''`''`''`'``'`''``'))))))``'`_`_`___````_)"
};
