/* XPM */
static char *_5235c1b80a443acc910dad31e98a481[] = {
/* columns rows colors chars-per-pixel */
"64 64 147 2 ",
"   c #314BAC",
".  c #2E4AB5",
"X  c #2B47BF",
"o  c #2C49BD",
"O  c #304AB2",
"+  c #4D5EBD",
"@  c #4F61BA",
"#  c #4C76BE",
"$  c #4E79BD",
"%  c #527DBA",
"&  c #6F77A6",
"*  c #707CBC",
"=  c #1E4FC6",
"-  c #1F4ACB",
";  c #1E51C5",
":  c #2646C7",
">  c #2947C4",
",  c #2A48C1",
"<  c #2545CC",
"1  c #2049CE",
"2  c #2C4FCF",
"3  c #2E52CF",
"4  c #3155CE",
"5  c #355ACC",
"6  c #395ECA",
"7  c #2144D3",
"8  c #2649D2",
"9  c #2A4DD1",
"0  c #2C50D0",
"q  c #3F66C6",
"w  c #3C61C8",
"e  c #4D5FC4",
"r  c #4A5DCD",
"t  c #495DD4",
"y  c #436BC4",
"u  c #536CCE",
"i  c #5B6ACC",
"p  c #4A71C3",
"a  c #5D7CC5",
"s  c #5672CC",
"d  c #5B72CD",
"f  c #4D63D2",
"g  c #5066D1",
"h  c #5269D1",
"j  c #5C6CD6",
"k  c #5E71D3",
"l  c #606FCD",
"z  c #6270C5",
"x  c #6F7BC3",
"c  c #667CCE",
"v  c #6C7BCE",
"b  c #757FC7",
"n  c #757FCA",
"m  c #606ED4",
"M  c #6373D5",
"N  c #6876D5",
"B  c #667AD0",
"V  c #6D7AD6",
"C  c #6C78D8",
"Z  c #717FD5",
"A  c #727ED8",
"S  c #5683B6",
"D  c #5988B1",
"F  c #7999BA",
"G  c #6385C0",
"H  c #6A86C6",
"J  c #6D8BC3",
"K  c #6C83CC",
"L  c #6E88C8",
"P  c #7984C6",
"I  c #7085CE",
"U  c #7983CC",
"Y  c #748ACD",
"T  c #798FCC",
"R  c #7593C0",
"E  c #7C95C5",
"W  c #6E80D1",
"Q  c #7582D4",
"!  c #7985D6",
"~  c #7B8AD4",
"^  c #7782D9",
"/  c #7884D8",
"(  c #9499BB",
")  c #94ADBF",
"_  c #838DC4",
"`  c #828BCE",
"'  c #8099C7",
"]  c #8195CD",
"[  c #8B94CD",
"{  c #8A9DCD",
"}  c #828CD6",
"|  c #818BDA",
" . c #8490D7",
".. c #8A93D5",
"X. c #8E9CD5",
"o. c #8A93DB",
"O. c #8C98D8",
"+. c #939DD5",
"@. c #929BDC",
"#. c #89A3C1",
"$. c #8EA4C8",
"%. c #94A7CC",
"&. c #9BA3CC",
"*. c #96AACA",
"=. c #9EB2CA",
"-. c #97A4D6",
";. c #9AA3D4",
":. c #9CAAD5",
">. c #95A0D8",
",. c #9AA2DD",
"<. c #9DA8D8",
"1. c #A3B5CE",
"2. c #A1AAD6",
"3. c #A8AED7",
"4. c #A0A7DE",
"5. c #A2AADE",
"6. c #A8AFDF",
"7. c #A4B2D5",
"8. c #AFB5D6",
"9. c #AAB8D4",
"0. c #A5B1D9",
"q. c #ACB4DD",
"w. c #AFB8DD",
"e. c #B0B7DE",
"r. c #B3BBDD",
"t. c #B9BEDE",
"y. c #A7AEE0",
"u. c #A8AEE0",
"i. c #AEB4E1",
"p. c #B3B9E2",
"a. c #B9BEE3",
"s. c #BAC6D6",
"d. c #B7C1DB",
"f. c #BCC4DD",
"g. c #BFC9D9",
"h. c #BDC3E3",
"j. c #C2CADF",
"k. c #C2C7E4",
"l. c #C6CBE5",
"z. c #CACEE6",
"x. c #CED3E7",
"c. c #CED2E8",
"v. c #D5D9E9",
"b. c #D9DDEB",
"n. c #E7E9F3",
"m. c #EEEFF5",
"M. c #EEF0F5",
/* pixels */
"M.M.M.m.m.m.m.M.M.M.m.m.m.m.m.m.m.m.m.M.m.m.m.n.m.M.M.M.M.M.M.M.M.M.M.M.M.M.M.M.M.M.M.M.M.M.M.M.M.M.M.M.M.M.M.M.M.M.M.M.M.M.M.M.",
"M.M.M.m.M.m.M.M.M.M.m.m.m.m.M.M.M.M.M.M.M.M.M.M.m.M.M.M.M.M.M.M.M.M.M.m.M.M.M.M.M.M.M.M.M.M.M.M.M.M.M.M.M.M.M.M.M.M.M.M.M.M.M.M.",
"M.M.M.m.m.m.m.m.M.m.m.m.m.m.m.m.M.m.M.M.m.m.m.n.M.M.M.M.m.M.M.M.M.M.M.m.M.M.M.M.M.M.m.m.M.m.M.M.M.M.M.M.M.M.m.m.M.M.M.m.M.M.M.M.",
"M.M.M.b.b.b.v.l.a.y.} b b U ~ A Q W T Y M K k h f p J 9.x.l.l.c.v.v.c.i.^ } 5.<.[ i e e : : 7 7 > 1 p X O X 7 t ^ @.,.,.y.M.M.M.",
"M.M.M.v.v.v.h.,.A t 7 : 6 5 7 1 w q : 7 1 3 7 9 3 q # E r.h.h.k.l.a.y.o.~ ,.5...n t < X O , < 7 1 o =     . t ^ @.,.@.o.@.m.M.M.",
"M.M.M.x.v.v.k.@.j 7 7 < < < 2 9 5 5 4 1 7 7 0 3 4 y $ y Q 5.i.h.l.p.o.C ^ ,.4.} t 7 < O   . : : 1 1 . = O o < j | ^ C ^ C m.M.M.",
"M.M.M.i.x.v.z.p.@.| j 7 7 < 9 9 4 9 7 7 9 9 0 w y $ % q k o.<.h.b.c.h.y.y.a.k.6.^ A } v @ . : 7 < - < - . . g j C j 7 t j M.M.M.",
"M.M.M.| p.c.v.c.a.,.| C t 7 9 9 8 7 1 7 7 9 0 q y # D W ,.y.i.p.c.v.c.a.i.a.l.,.| 4.a.p.} M t < t t 7 : - - t Q @.4.| C C M.M.M.",
"M.M.m.j o.k.v.v.b.l.y.A t 8 < 7 7 7 7 7 7 9 5 y H &.7.5.p.h.a.k.k.l.l.a.3.4.6.@.@.a.c.c.a.o.m m M t 7 1 y 6 f o.p.k.p.,.o.m.m.m.",
"M.m.m.C | p.c.v.v.l.@.A t 7 7 7 7 7 7 7 8 0 q G -.z.x.j.k.h.k.k.h.p.i.u.;.;.3.,.@.i.k.c.l.4.A / V k f k ^ ~ O.y.a.k.h.y.@.m.M.M.",
"M.M.m.,.4.k.v.v.v.z.i.o.C t 7 7 7 7 7 8 9 4 k Y :.j.z.l.k.q.i.p.a.a.k.h.r.8.8.4.| o.u.i.4.@.o.A  .~ B  .<.,.4.p.l.c.v.h.y.M.M.M.",
"M.M.m.u.a.c.v.v.v.c.a.@.A t 7 7 7 7 7 7 8 f u Y 9.x.j.t.+.@.@.@.4.6.j.c.c.z.l.p.,.A } ,.4.@.o.| ~ !  .,.h.l.l.l.c.b.v.c.a.M.M.M.",
"M.M.M.z.c.v.v.c.z.k.u.o.j 7 7 7 7 7 7 7 7 7 4 ~ w.k.j.r.<.M 1 t A +.3.r.t.l.j.r.4.@.O.+.i.k.k.h.i.@.,.i.h.z.k.l.c.v.v.v.z.m.m.m.",
"M.M.m.v.c.c.c.h.i.u.,.A t 7 7 7 7 7 7 7 t C Q ,.r.2.` T Z j < j o.2.q.r.8.t.j.t.3.@.@.6.k.c.v.v.c.p.y.y.i.p.p.p.a.k.c.v.c.m.M.M.",
"M.M.m.a.a.h.k.p.4.@.A t 7 7 7 7 7 7 t C @.i.p.h.l.q.} m ! Q r r A 3.h.z.j.f.j.t.5.@...@.y.a.k.a.y.,.,.,.4.y.i.i.i.k.v.v.b.M.M.M.",
"M.M.M.A ,.u.u.4.,.o.j 7 7 7 7 7 7 t ^ o.@.u.p.e.i.q.| M C U V l Z +.a.h.l.k.i...} m t ^ @.@.@.A k V ^ o.,.,.y.p.a.c.v.v.c.M.M.M.",
"M.M.m.j C C m C | M 7 7 7 7 7 7 7 t / @.| @.i.p.i.p.<./ j Q N V / ..6.e.a.r.,.} W f 0 f m m m t 7 7 7 j | | | 4.p.c.v.v.z.m.m.m.",
"M.M.m.n V m m m j t 7 7 7 7 7 7 7 7 t j m C | o.y.k.z.y./ j M M Z ..+.4.2.@.| Z f 0 f C V t f f 7 7 7 t A A j ^ ,.p.c.b.c.n.M.m.",
"M.M.M.N b z z r r t 7 7 7 7 7 7 7 7 7 7 7 7 j C / y.a.,.t t j j Z | o.| } +.} c W h h  .@.C 7 7 7 7 7 j @.y.o.A / ,.y.i.a.M.M.M.",
"M.M.M.m + + b P U V t 7 7 7 7 7 7 7 7 7 7 8 t j m C ^ C k M M M C @.@.Z m t i y o 1 5 h k t 7 7 7 7 7 j @.p.a.y.o.^ A ^ o.M.M.M.",
"m.m.m.b Q P _ &.9.8.O.t t t t j t 7 7 t t 7 7 7 7 t f 9 0 0 s k m m m f 0 0 > # O > > q 7 7 7 7 7 7 7 7 t ^ 4.o.^ ^ C t 7 M.M.M.",
"M.m.m.Q &.r.d.f.x.x.q.! ^ | C t t t j / / A j t 7 7 7 0 0 0 0 0 9 7 7 9 9 0 : o o w > q 9 7 7 8 7 7 7 7 7 j @.o.^ | ^ j j m.M.M.",
"M.M.m.N 0.z.v.v.c.l.p.o.| @.,.o.o.@.@.,.,.@.@.o.j 8 7 9 0 3 0 9 7 7 7 7 f V i : : : y X 2 9 7 7 7 7 7 7 7 j / | / o. .j 7 M.M.M.",
"M.M.m.N ;.h.l.z.l.h.p.p.i.y.,.o.y.k.z.z.k.h.h.u.~ t 7 9 0 0 0 8 8 7 7 7 j | ^ f < : o w > : 7 7 7 7 7 7 7 j A C W ~ / A t M.M.M.",
"M.M.M.i } 0.h.l.l.h.h.l.l.h.,.| i.c.b.v.v.v.v.c.4.j 7 j / ^ f 9 9 7 7 7 t ^ @.@.~ t r t , o < - 1 1 7 7 7 f j j j M W B f M.M.M.",
"M.M.M.U -.d.x.x.l.x.v.v.c.a.,.@.i.c.v.v.v.v.v.k.,.C j ^  .M 4 4 3 8 7 7 t | p.x.l.y.| f 5 e k t 4 o 5 7 8 8 8 8 8 9 5 s ! M.M.M.",
"M.M.M.<.h.x.v.v.v.v.v.v.c.h.i.,.y.k.v.v.v.v.z.4.C 8 f C h 5 3 0 9 8 8 t / @.l.v.v.c.h.O.V Q ~ j 4 D S s j 5 0 8 8 8 4 0 W M.M.M.",
"M.M.M.0.p.x.v.v.v.v.v.v.c.h.p.p.a.c.v.v.c.z.u.^ k j j ^ ^ g 3 8 8 9 8 j o.i.z.v.v.v.v.x.q.0.9.3.} L G s u h k C j 7 f j / M.M.M.",
"M.M.M.0.<.h.x.v.v.v.v.v.l.h.l.l.c.v.v.v.z.i.,.o.| / C C C m m f 2 f m | i.l.v.v.v.v.v.v.x.h.f.f.e.0.+.Q M / @.,.o.C C o.i.M.M.M.",
"M.M.M.3.>.p.x.v.v.v.v.v.l.h.x.v.v.v.v.c.h.i.4.| t 7 7 t t 8 8 8 t ^ @.y.k.c.v.v.v.v.v.v.x.h.s.f.k.x.h.5.,.y.h.a.y.@.o.,.i.M.M.M.",
"M.M.M.a.w.l.v.v.v.v.v.x.h.h.c.v.v.v.v.c.i.o.A j 8 8 7 7 7 7 7 t A ,.i.k.c.v.v.v.v.v.v.v.x.l.k.f.e.i.a.i.y.4.4.y.y.y.i.a.h.M.M.M.",
"M.M.M.c.x.c.v.v.v.v.x.h.q.p.x.v.v.v.v.v.z.@.t 7 7 t t 7 7 7 t C o.6.h.c.c.c.v.v.v.v.c.l.l.f.p.q.<.+.@.y.y.| t f | y.a.z.b.M.M.M.",
"M.M.m.v.v.c.c.v.v.v.z.5.} ,.a.l.z.c.b.b.b.p.C 7 7 7 t t 7 t C A @.i.a.k.p.h.c.v.v.v.c.x.l.x.d. .M M M C A A t 8 t | i.z.v.m.m.m.",
"M.M.M.c.l.h.y.u.k.v.x.4./ o.5.6.y.p.a.a.i.| t 7 7 t j j M ^ @.4.p.l.k.k.z.v.v.v.v.v.v.x.x.j.r. .j f g j t 7 7 7 j o.a.v.v.m.m.m.",
"M.M.M.p.h.i.,.,.,.0.a.i.@.o.@.@.o.o.o.| A C t 7 7 t C C ^ A o.i.z.c.l.c.v.v.v.v.v.v.x.l.j.g.1.Y m m f t t 7 7 t C @.k.b.c.M.m.m.",
"M.M.m.O.@.i.p.,.o.o.4.p.u.i.k.h.o.j 7 7 7 7 7 7 7 0 t M A y.p.h.c.v.v.v.v.v.v.v.c.l.l.z.j.g.1.H 5 8 7 7 t j t t C @.p.k.k.M.m.m.",
"M.M.M.^ Q @.i.o.^ C | y.y.p.a.,.A B m t 7 7 7 7 7 0 8 t | p.l.k.c.v.v.v.v.v.v.c.z.x.v.v.x.g.2.] h 8 7 t C A ^ C m | y.a.k.m.m.M.",
"M.M.M.7 7 j V t f t 8 7 N @.o.j t V m t 7 7 7 7 9 0 8 7 M y.a.c.v.v.v.v.v.v.v.v.v.v.v.v.v.j.;.^ M m t j ^ C A A t C ,.p.l.m.M.M.",
"M.M.M.7 7 7 7 9 0 9 8 7 r M j t 7 t C ^ C t 7 8 0 0 7 8 j ,.a.z.v.v.v.v.v.v.v.v.v.v.v.c.z.l.i.| W f 7 t j j | y.u.p.a.k.k.M.M.M.",
"M.m.m.7 7 7 7 9 8 7 8 7 t f 1 7 t C / ! j 7 7 7 8 9 t C o.i.z.v.v.v.v.v.v.v.v.v.v.v.v.z.a.a.i.o.j 7 f j j ^ u.l.c.b.c.z.c.M.M.M.",
"M.M.m.7 7 7 7 7 8 8 9 t ^ ^ t t M C V M f 7 t j t 0 j o.y.p.z.v.v.v.v.v.v.v.v.v.v.v.v.c.h.y.,.@.A t t j C o.y.h.c.v.v.v.v.M.M.M.",
"M.M.m.7 7 7 7 9 7 8 5 j o.@.! W Q V m M M V | o.| A M o.p.k.z.c.v.v.v.v.v.v.v.v.v.v.v.v.v.k.y.@.o.j 7 t j ^ @.y.p.k.l.x.v.M.M.M.",
"M.M.M.7 7 7 7 7 0 0 0 t ^ ,.,.X.X.~ j m C o.5.p.a.@.A | y.h.z.c.v.v.v.v.v.v.v.v.v.v.v.v.z.i.| m j j t t j ^ o.@.,.y.i.h.x.M.M.M.",
"M.M.M.7 7 7 7 7 7 7 t C o.y.h.i.@.~ f t V ^ 4.z.c.p.@.o.o.4.a.a.k.l.l.c.v.v.v.v.v.v.v.v.c.k.i.A 7 7 7 t M f t C A | X.$.p.M.M.M.",
"M.M.M.7 7 7 t j t 7 M @.4.y.y.@.^ V f 8 j ,.h.l.k.p.,.| | ,.u.u.i.a.h.k.l.l.z.v.v.v.v.v.c.l.k.u.^ t t j j t 7 7 9 0 s ] <.M.M.M.",
"M.M.M.7 7 7 j C f 7 M @.4.y.4.o./ ^ C m ^ y.z.c.c.k.p.y.y.i.a.i.i.i.e.a.h.a.p.l.v.v.v.v.l.i.u.i.y.| t 7 t t 7 7 w w k X.y.M.M.M.",
"M.M.M.7 7 7 t j C ~ o.,.p.a.p.,.o.o./ j j o.i.k.z.k.z.z.z.k.a.i.u.4.+.6.p.p.6.e.z.l.a.a.@.C C A | o.@.,.o.j 7 t B K T <.h.M.M.M.",
"M.M.M.7 7 < t A 4.h.h.h.h.h.h.4.4.a.i.V t C o.y.a.k.b.v.c.k.a.i.u.@.V } @.4.o.~ e.p.u.p.u.@.| C C @.p.h.i./ C C k W $.:.r.M.M.M.",
"M.M.M.7 7 N @.4.r.k.c.c.k.k.k.h.k.c.l.y.@.o.o.o.4.a.v.b.v.c.k.k.h.y.o.o.o.j 9 t o.y.@.,.y.@.| C C o.i.k.h.i.u.,.A C [ #.[ M.M.M.",
"M.M.M.7 7 A 5.a.k.c.v.c.l.c.v.v.c.l.k.a.p.y.@.C | y.a.c.b.c.z.z.h.y.y.y.| t 9 7 7 M o.o.o.@.@.o.A | y.a.u.,.o.j 7 f c E E M.M.M.",
"M.M.M.7 7 A i.l.c.v.v.v.v.v.c.l.l.l.k.a.a.a.o.C o.y.l.b.z.p.a.k.p.,.y.p.o.m t t t 7 j | o.o.@.| C A @.,.| A j 7 7 8 9 5 c M.M.M.",
"M.M.M.h @.p.h.z.v.v.v.v.v.v.v.v.v.b.l.i.p.p.@.A A ,.k.v.k.,.C A V f j C m t 7 7 7 t | ,.y.@.| C j C | | | A t 7 7 9 0 3 t M.M.M.",
"M.M.m.@.t.l.l.l.x.v.v.v.v.v.v.v.v.v.k.4.i.a.y.@.@.i.h.z.a.A 7 t f 7 8 7 7 7 7 7 7 8 C y.k.p.@.^ t t m m C C m r 7 t f - 3 M.M.M.",
"M.M.m.[ t.l.l.c.v.v.v.v.v.c.k.a.h.z.h.4.,.y.i.a.k.c.v.v.c.@.j j f 7 7 7 7 7 7 7 7 7 t o.i.r.q.o.j 0 r V v A ..} j j u s f M.M.M.",
"M.M.M.e.j.t.q.t.l.k.j.k.k.h.u.@.@.,.y.i.a.a.z.v.b.v.v.v.c.a.4.| f 7 7 7 7 7 7 7 7 7 7 t ~ >.;.+.| C C m l @.p.i.o./ h 7 - M.M.M.",
"M.M.M.q.r.4.;.2.t.z.j.6.@.@.@.| A A o.a.v.v.v.v.v.v.v.v.v.c.p.C 7 7 7 7 7 7 7 7 7 7 7 7 t z I I | ,.y.,.A +.z.l.<.o.Q t - M.M.M.",
"M.M.M.j Q } @.,.r.x.x.r. .M f 8 7 j ,.k.v.v.v.v.v.v.v.c.l.a.i.| t 7 8 8 7 7 7 7 7 7 7 7 < 6 I O.O.5.l.x.k.l.k.t.6.+.K 7 + M.M.M.",
"M.M.M.7 7 8 j ! ,.l.v.k.0.>.N 7 t A y.z.v.v.v.v.v.v.v.c.a.y.@.| j 7 7 9 t t 7 7 7 7 < < : a <.h.a.l.v.v.v.x.f.r.0.X.Y v F M.M.M.",
"M.M.M.7 7 7 f C +.k.x.f.9.y.| j m C | y.z.c.c.v.v.v.c.c.c.p.o.A t 7 8 8 7 7 7 7 7 7 7 : : a +.k.x.v.v.v.v.v.v.x.h.<.7.=.) M.M.M.",
"M.M.M.7 8 7 7 9 g +.9.( %.-.@./ m j C A @.4.4.a.l.k.k.l.b.a.o.^ j 8 7 9 7 7 7 7 7 7 7 < 6 < j 5.x.v.v.v.v.v.v.v.c.l.k.j.s.M.M.M.",
"M.M.M.7 8 8 8 2 5 Y $.& * v l C ^ | y.y.@.^ m / @.,.@.p.l.p.| t 7 7 7 8 7 7 7 7 7 7 7 < < g ^ 0.z.v.x.k.t.h.x.v.v.v.v.v.x.M.M.M.",
"M.M.M.M.M.M.M.M.M.M.M.M.M.M.M.M.M.M.m.m.M.M.M.M.M.M.M.M.M.M.m.M.m.M.M.M.M.M.m.m.M.M.m.M.m.M.M.M.M.M.M.M.M.M.M.M.M.M.M.M.M.M.M.M.",
"M.M.M.M.M.M.M.M.M.M.M.M.M.M.M.M.M.M.M.M.M.M.M.M.M.M.M.M.M.M.M.M.M.M.M.M.M.M.m.m.M.M.M.M.m.M.M.M.M.M.M.M.M.M.M.M.M.M.M.M.M.M.M.M.",
"M.M.M.M.M.M.M.M.M.M.M.M.M.M.M.M.M.M.M.M.M.M.M.M.M.M.M.M.M.M.M.M.M.M.M.M.M.M.M.M.M.M.M.M.M.M.M.M.M.M.M.M.M.M.M.M.M.M.M.M.M.M.M.M."
};
